HIERARCHY
ROOT Hips
{
  OFFSET 55.9669 93.6919 19.7172
  CHANNELS 6 Xposition Yposition Zposition Zrotation Xrotation Yrotation
  JOINT spine
  {
    OFFSET 0 7.4756 0.429885
    CHANNELS 3 Zrotation Xrotation Yrotation
    JOINT spine1
    {
      OFFSET 0 9.92301 0
      CHANNELS 3 Zrotation Xrotation Yrotation
      JOINT spine2
      {
        OFFSET 0 9.50804 0
        CHANNELS 3 Zrotation Xrotation Yrotation
        JOINT Neck
        {
          OFFSET 0 24.4111 1.16384
          CHANNELS 3 Zrotation Xrotation Yrotation
          JOINT Head
          {
            OFFSET 0 7.37523 0
            CHANNELS 3 Zrotation Xrotation Yrotation
            End Site
            {
              OFFSET 0 17.8522 -5.88741
            }
          }
        }
        JOINT RightShoulder
        {
          OFFSET -4.00356 10.2679 -0.557468
          CHANNELS 3 Zrotation Xrotation Yrotation
          JOINT RightArm
          {
            OFFSET 0 13.4673 0
            CHANNELS 3 Zrotation Xrotation Yrotation
            JOINT RightArmRoll
            {
              OFFSET 0 6.79858 0
              CHANNELS 3 Zrotation Xrotation Yrotation
              JOINT RightForeArm
              {
                OFFSET 0 19.8018 0
                CHANNELS 3 Zrotation Xrotation Yrotation
                JOINT RightForeArmRoll
                {
                  OFFSET 0 7.62906 0
                  CHANNELS 3 Zrotation Xrotation Yrotation
                  JOINT RightHand
                  {
                    OFFSET 0 15.3098 0
                    CHANNELS 3 Zrotation Xrotation Yrotation
                    End Site
                    {
                      OFFSET 0 0 0
                    }
                  }
                }
              }
            }
          }
        }
        JOINT LeftShoulder
        {
          OFFSET 4.00356 10.2679 -0.557468
          CHANNELS 3 Zrotation Xrotation Yrotation
          JOINT LeftArm
          {
            OFFSET 0 13.4673 0
            CHANNELS 3 Zrotation Xrotation Yrotation
            JOINT LeftArmRoll
            {
              OFFSET 0 6.79858 0
              CHANNELS 3 Zrotation Xrotation Yrotation
              JOINT LeftForeArm
              {
                OFFSET 0 19.8018 0
                CHANNELS 3 Zrotation Xrotation Yrotation
                JOINT LeftForeArmRoll
                {
                  OFFSET 0 7.62905 0
                  CHANNELS 3 Zrotation Xrotation Yrotation
                  JOINT LeftHand
                  {
                    OFFSET 0 15.3098 0
                    CHANNELS 3 Zrotation Xrotation Yrotation
                    End Site
                    {
                      OFFSET 0 0 0
                    }
                  }
                }
              }
            }
          }
        }
      }
    }
  }
  JOINT RightUpLeg
  {
    OFFSET -6.62609 -1.21505 -1.01927
    CHANNELS 3 Zrotation Xrotation Yrotation
    JOINT RightUpLegRoll
    {
      OFFSET 0 17.9517 0
      CHANNELS 3 Zrotation Xrotation Yrotation
      JOINT RightLeg
      {
        OFFSET 0 -22.2304 0
        CHANNELS 3 Zrotation Xrotation Yrotation
        JOINT RightLegRoll
        {
          OFFSET 0 22.3032 0
          CHANNELS 3 Zrotation Xrotation Yrotation
          JOINT RightFoot
          {
            OFFSET 0 18.5636 0
            CHANNELS 3 Zrotation Xrotation Yrotation
            JOINT RightToeBase
            {
              OFFSET 0 15.5183 0
              CHANNELS 3 Zrotation Xrotation Yrotation
              End Site
              {
                OFFSET 0.00657761 7.51539 -0.866263
              }
            }
          }
        }
      }
    }
  }
  JOINT LeftUpLeg
  {
    OFFSET 6.62609 -1.21505 -1.01927
    CHANNELS 3 Zrotation Xrotation Yrotation
    JOINT LeftUpLegRoll
    {
      OFFSET 0 17.9518 0
      CHANNELS 3 Zrotation Xrotation Yrotation
      JOINT LeftLeg
      {
        OFFSET 0 22.2303 0
        CHANNELS 3 Zrotation Xrotation Yrotation
        JOINT LeftLegRoll
        {
          OFFSET 0 22.5093 0
          CHANNELS 3 Zrotation Xrotation Yrotation
          JOINT LeftFoot
          {
            OFFSET 0 18.3575 0
            CHANNELS 3 Zrotation Xrotation Yrotation
            JOINT LeftToeBase
            {
              OFFSET 0 15.5183 0
              CHANNELS 3 Zrotation Xrotation Yrotation
              End Site
              {
                OFFSET -0.029478 7.51538 -0.866263
              }
            }
          }
        }
      }
    }
  }
}
MOTION
Frames: 6
Frame Time: 0.00208333
52.8087 93.4901 13.6818 -0.0664923 -0.263791 -0.373217 0.0819546 -1.88256 0.196565 0.169179 0.243122 0.385019 0.164625 1.88818 0.382322 -5.38985 9.14461 -1.93864 5.62974 3.18968 -2.82159 69.4927 -3.81796 -3.16276 99.7333 11.3008 27.7169 -3.25896e-007 3.56183e-007 -3.30196e-006 1.03544 0.0106706 -1.37457 2.09767e-005 -3.12649e-006 -3.04819 8.03012 -4.95136 0.697651 -69.2012 -4.78431 3.62565 -103.768 1.21834 -26.1484 9.10637e-007 -1.18973e-006 4.27436e-008 -1.00854 2.90661 0.881438 -8.53181e-007 2.01804e-006 3.00775 -8.03014 -4.95141 -0.69766 178.377 1.40406 0.118887 180 7.01555e-015 178.96 177.311 8.19683 179.823 -4.36033e-006 -2.03467e-007 0.134976 -20.1053 69.7524 21.1088 8.13649 25.2327 -3.48774 -177.749 -0.479585 2.16928 4.54188e-006 -4.6773e-006 -1.02179 -2.65663 -4.59287 0.00897948 -1.69606e-007 -1.90836e-007 -0.033822 18.5381 67.861 -19.4204 -8.13313 25.2328 3.4863 
52.8093 93.4977 13.6832 -0.0661625 -0.257876 -0.36239 0.0822464 -1.88487 0.197866 0.169625 0.238139 0.387532 0.165031 1.8832 0.384841 -5.41139 9.18491 -1.93791 5.65384 3.18353 -2.82574 69.4876 -3.79704 -3.15201 99.7343 11.3752 27.6805 -3.25896e-007 3.56183e-007 -3.30196e-006 1.04476 0.0106906 -1.37462 2.09767e-005 -3.12649e-006 -3.04819 8.03012 -4.95136 0.697651 -69.2066 -4.79444 3.63105 -103.712 1.35558 -26.2087 9.10637e-007 -1.18973e-006 4.27436e-008 -0.921836 2.79865 0.87713 -8.53181e-007 2.01804e-006 3.00775 -8.03014 -4.95141 -0.69766 178.377 1.399 0.117944 180 7.01555e-015 178.96 177.311 8.18032 179.824 -4.36033e-006 -2.03467e-007 0.134976 -20.1046 69.7518 21.108 8.13649 25.2327 -3.48774 -177.749 -0.477297 2.17148 4.54188e-006 -4.6773e-006 -1.02179 -2.65553 -4.58457 0.00903285 -1.69606e-007 -1.90836e-007 -0.033822 18.5406 67.864 -19.4232 -8.13313 25.2328 3.4863 
52.809 93.4937 13.6871 -0.0659645 -0.252425 -0.351276 0.0826955 -1.8871 0.199248 0.170377 0.233298 0.390195 0.165742 1.87836 0.387505 -5.43472 9.22622 -1.93723 5.67904 3.17642 -2.83027 69.4805 -3.77588 -3.141 99.737 11.4492 27.6441 -3.25896e-007 3.56183e-007 -3.30196e-006 1.05394 0.0107062 -1.37468 2.09767e-005 -3.12649e-006 -3.04819 8.03012 -4.95136 0.697651 -69.2149 -4.80351 3.63606 -103.654 1.49399 -26.2686 9.10637e-007 -1.18973e-006 4.27436e-008 -0.835585 2.68925 0.872706 -8.53181e-007 2.01804e-006 3.00775 -8.03014 -4.95141 -0.69766 178.378 1.39311 0.116941 180 7.01555e-015 178.96 177.31 8.16291 179.824 -4.36033e-006 -2.03467e-007 0.134976 -20.1038 69.7511 21.1071 8.13649 25.2327 -3.48774 -177.749 -0.475389 2.17361 4.54188e-006 -4.6773e-006 -1.02179 -2.65442 -4.57633 0.00908073 -1.69606e-007 -1.90836e-007 -0.033822 18.5431 67.867 -19.4259 -8.13313 25.2328 3.4863 
52.8115 93.496 13.6873 -0.0658594 -0.247301 -0.33996 0.0832548 -1.88928 0.200688 0.171344 0.228556 0.392962 0.166666 1.87361 0.39027 -5.45932 9.26823 -1.93657 5.70502 3.16865 -2.83507 69.472 -3.75454 -3.12979 99.7408 11.5228 27.6076 -3.25896e-007 3.56183e-007 -3.30196e-006 1.06302 0.0107187 -1.37473 2.09767e-005 -3.12649e-006 -3.04819 8.03012 -4.95136 0.697651 -69.225 -4.81183 3.6408 -103.594 1.63318 -26.3284 9.10637e-007 -1.18973e-006 4.27436e-008 -0.749657 2.57884 0.868202 -8.53181e-007 2.01804e-006 3.00775 -8.03014 -4.95141 -0.69766 178.378 1.38662 0.115893 180 7.01555e-015 178.96 177.31 8.14487 179.824 -4.36033e-006 -2.03467e-007 0.134976 -20.1029 69.7503 21.1062 8.13649 25.2327 -3.48774 -177.749 -0.473749 2.17568 4.54188e-006 -4.6773e-006 -1.02179 -2.65332 -4.56812 0.00912478 -1.69606e-007 -1.90836e-007 -0.033822 18.5456 67.87 -19.4286 -8.13313 25.2328 3.4863 
52.8146 93.4952 13.6974 -0.065808 -0.242362 -0.328529 0.083877 -1.89142 0.20216 0.172435 0.223872 0.39579 0.167712 1.86893 0.393094 -5.48463 9.31063 -1.93592 5.73143 3.1605 -2.84003 69.4627 -3.73311 -3.11848 99.7454 11.5962 27.571 -3.25896e-007 3.56183e-007 -3.30196e-006 1.07205 0.0107294 -1.37478 2.09767e-005 -3.12649e-006 -3.04819 8.03012 -4.95136 0.697651 -69.2363 -4.81971 3.64538 -103.533 1.77274 -26.3882 9.10637e-007 -1.18973e-006 4.27436e-008 -0.66392 2.46785 0.863656 -8.53181e-007 2.01804e-006 3.00775 -8.03014 -4.95141 -0.69766 178.378 1.3798 0.114822 180 7.01555e-015 178.96 177.309 8.12649 179.825 -4.36033e-006 -2.03467e-007 0.134976 -20.1019 69.7495 21.1052 8.13649 25.2327 -3.48774 -177.749 -0.472261 2.17773 4.54188e-006 -4.6773e-006 -1.02179 -2.65221 -4.55993 0.00916663 -1.69606e-007 -1.90836e-007 -0.033822 18.548 67.873 -19.4313 -8.13313 25.2328 3.4863 
52.8145 93.4936 13.6963 -0.0657716 -0.237469 -0.31707 0.084515 -1.89356 0.20364 0.173556 0.219202 0.398632 0.168789 1.86426 0.395932 -5.51013 9.35314 -1.93528 5.75795 3.15226 -2.84503 69.4531 -3.71165 -3.10714 99.7502 11.6696 27.5345 -3.25896e-007 3.56183e-007 -3.30196e-006 1.08106 0.0107397 -1.37483 2.09767e-005 -3.12649e-006 -3.04819 8.03012 -4.95136 0.697651 -69.2478 -4.82749 3.64993 -103.471 1.91229 -26.4482 9.10637e-007 -1.18973e-006 4.27436e-008 -0.578244 2.35671 0.859101 -8.53181e-007 2.01804e-006 3.00775 -8.03014 -4.95141 -0.69766 178.379 1.3729 0.113744 180 7.01555e-015 178.96 177.309 8.10804 179.825 -4.36033e-006 -2.03467e-007 0.134976 -20.101 69.7487 21.1042 8.13649 25.2327 -3.48774 -177.749 -0.470811 2.17976 4.54188e-006 -4.6773e-006 -1.02179 -2.65111 -4.55175 0.00920793 -1.69606e-007 -1.90836e-007 -0.033822 18.5505 67.876 -19.434 -8.13313 25.2328 3.4863 
